# xmcd CD database file
#
# Track frame offsets:
#	150
#	12445
#	25893
#	38892
#	51718
#	65256
#	79587
#	92641
#	105773
#	117784
#	129762
#	153421
#	168206
#	180063
#	191612
#	204206
#	215121
#	229065
#	242606
#	256298
#	268116
#	278443
#	303643
#	314526
#
# Disc length: 4398 seconds
#
# Revision: 0
# Processed by: cddbd v1.5.1PL0 Copyright (c) Steve Scherf et al.
# Submitted via: CDex 1.51
#
DISCID=38112c18
DTITLE=Shorty Rogers - The Sweetheart of Sigmund Freud - Disc One
DYEAR=2004
DGENRE=Jazz
TTITLE0=Igor
TTITLE1=Bop!
TTITLE2=Keen And Peachy
TTITLE3=Lemon Drop
TTITLE4=Keeper Of The Flame
TTITLE5=More Moon
TTITLE6=The Great Lie
TTITLE7=Tenderly
TTITLE8=Lollipop
TTITLE9=Jolly Rogers
TTITLE10=Art Pepper
TTITLE11=Viva Prado
TTITLE12=Round Robin
TTITLE13=Short Wave
TTITLE14=Four Mothers
TTITLE15=Didi
TTITLE16=Sam And The Lady
TTITLE17=Popo
TTITLE18=Over The Rainbow
TTITLE19=Apropos
TTITLE20=What's New
TTITLE21=Jive At Five
TTITLE22=Swing Shift
TTITLE23=Punkin'
EXTD=YEAR: 2004
EXTT0=
EXTT1=
EXTT2=
EXTT3=
EXTT4=
EXTT5=
EXTT6=
EXTT7=
EXTT8=
EXTT9=
EXTT10=
EXTT11=
EXTT12=
EXTT13=
EXTT14=
EXTT15=
EXTT16=
EXTT17=
EXTT18=
EXTT19=
EXTT20=
EXTT21=
EXTT22=
EXTT23=
PLAYORDER=
